<svg width="108" height="75" viewBox="0 0 108 75" fill="none" xmlns="http://www.w3.org/2000/svg">
<path d="M75.4288 45.8736C72.9288 45.4666 70.4559 46.8135 69.4111 49.1491C69.2086 49.6022 69.0709 50.0717 68.9916 50.5462C71.5717 49.2731 73.8268 47.7384 75.7736 45.9297L75.4288 45.8736Z" fill="#124C5F"/>
<path d="M77.7482 23.2481C82.4355 20.1596 83.7631 13.8082 80.7134 9.06201C77.6638 4.31577 71.3917 2.97196 66.7044 6.06051C62.017 9.14907 60.6895 15.5004 63.7391 20.2466C66.7888 24.9929 73.0609 26.3367 77.7482 23.2481Z" fill="#124C5F"/>
<path d="M96.3341 25.8367C91.9549 20.3454 86.007 20.2825 82.7216 22.5224C79.437 24.7609 79.6769 30.4486 82.42 34.2675C82.5447 34.478 82.677 34.6973 82.8066 34.9143C83.7519 32.0098 83.8851 29.9016 83.8865 29.8725C83.9828 27.4083 85.9566 25.4848 88.3809 25.4848C88.4372 25.4848 88.4934 25.4857 88.5497 25.488C91.0299 25.58 92.9735 27.6982 92.8821 30.2102V30.218L92.8794 30.2585C92.8056 31.6652 92.3303 36.7216 89.3154 42.7306C89.0408 43.2822 88.7172 43.8866 88.3458 44.5265C88.9778 45.749 89.5854 46.998 90.1395 48.2665L86.3005 47.642C83.7037 51.1646 79.7314 55.1608 73.8155 58.2918L90.979 72.6783C92.0287 73.5584 93.2998 73.9874 94.5638 73.9874C96.1819 73.9874 97.788 73.2836 98.9011 71.923C100.882 69.4985 100.548 65.9071 98.1544 63.901L94.0272 60.44L95.3623 60.6579C95.7759 60.7249 96.1851 60.7413 96.587 60.7176C97.5566 60.7646 98.6967 60.4213 100.099 59.9268C103.994 58.552 108.41 56.1284 107.262 48.7428C104.945 38.8215 102.31 33.4233 96.3341 25.8367Z" fill="#124C5F"/>
<path d="M88.5134 42.3169C91.7542 35.8579 91.9635 30.5121 91.9829 30.1762C92.0558 28.1633 90.5052 26.4722 88.5174 26.3988C86.5329 26.3241 84.8652 27.8907 84.7873 29.899L84.7868 29.8986C84.781 30.1306 84.4808 34.5269 81.8507 39.4812C79.1928 44.4428 74.4143 50.0174 64.7408 53.2788C62.8521 53.9097 61.8258 55.9713 62.4501 57.8844C62.9493 59.4168 64.3573 60.3886 65.8692 60.3886C66.2433 60.3886 66.6236 60.3289 66.9981 60.204C78.8255 56.2845 85.3031 48.7667 88.5134 42.3169Z" fill="#124C5F"/>
<path d="M41.0864 59.6611C42.723 59.9756 44.6928 60.4953 45.2136 61.0536C46.6157 62.5519 47.3008 65.6465 49.1188 65.8634C50.389 66.0148 50.8351 65.987 52.4087 64.9586C53.9621 63.9412 52.487 59.9802 52.1161 58.4582C51.5904 56.2986 52.844 53.9265 52.8633 53.7815C52.8791 53.6612 53.9589 51.368 57.0805 52.2386C58.1707 52.5449 57.5324 50.5042 55.8251 49.4845C53.7951 48.2739 52.3263 48.8382 50.8423 50.0169C47.9768 47.7962 43.4878 48.2297 40.9356 49.1969C40.5278 50.8803 40.3698 52.5089 40.3698 54.0072C40.3685 56.2849 40.7286 58.2599 41.0864 59.6611ZM48.3621 54.87C49.0292 54.4092 49.9394 54.5838 50.3949 55.2593C50.8495 55.9353 50.6771 56.8574 50.01 57.3173C49.3411 57.7781 48.4319 57.604 47.9764 56.928C47.5222 56.2525 47.6937 55.3304 48.3621 54.87Z" fill="#124C5F"/>
<path d="M39.096 49.1453C38.4317 49.1549 37.7988 49.1353 37.1952 49.0879C36.9836 49.0346 36.7649 49.0013 36.5358 49.0132C36.5218 49.0141 36.5092 49.0186 36.4952 49.0195C27.3133 47.9634 24.8137 40.9297 14.0865 48.2292C10.8465 47.2651 6.9836 45.1925 4.05783 40.7697C3.46637 39.8804 2.2758 39.6475 1.40032 40.2464C0.520337 40.844 0.288075 42.0487 0.881783 42.9385C3.66487 47.1028 7.10424 49.5424 10.3316 50.9714C10.2938 51.0516 10.2542 51.1468 10.2146 51.238C9.38724 52.4983 8.73952 54.1589 8.31821 56.3719C8.25924 56.695 5.63234 73.6715 9.75814 73.6715C13.8839 73.6715 15.0169 60.8293 17.3206 59.1852C17.6451 59.2144 23.7654 65.7084 28.9931 64.892C30.2179 64.6997 31.8761 63.9339 33.258 63.1193L35.5194 72.2867C35.7732 73.3155 36.6811 74.0134 37.6993 74.0134C37.8105 74.0134 37.9235 74.0052 38.0365 73.9878C39.1847 73.8133 40.0116 72.7895 39.9508 71.6149L39.3639 60.2003C38.9686 58.6774 38.5698 56.5241 38.568 54.0071C38.5685 52.4942 38.7157 50.8524 39.096 49.1453Z" fill="#124C5F"/>
<path d="M59.179 71.5653H58.611L57.4514 67.927H44.4615L43.3019 71.5653H42.733C42.2757 71.5653 41.9039 71.9414 41.9039 72.4054C41.9039 72.869 42.2757 73.245 42.733 73.245H59.179C59.6363 73.245 60.0081 72.869 60.0081 72.4054C60.0081 71.9414 59.6359 71.5653 59.179 71.5653Z" fill="#124C5F"/>
</svg>
