<svg width="83" height="68" viewBox="0 0 83 68" fill="none" xmlns="http://www.w3.org/2000/svg">
<path d="M58.6983 31.1764C58.1887 30.0151 57.2968 28.5959 55.513 27.4346C54.4937 26.7895 50.5439 26.2734 50.4165 29.8861C50.4165 29.8861 48.7601 30.1442 48.8875 31.3054C48.8875 31.3054 47.8682 34.7891 52.7099 34.402C52.7099 34.402 53.6018 40.9823 54.3663 42.4016C54.3663 42.4016 54.7485 43.6919 54.8759 44.9821H56.9145L57.042 42.4016C57.042 42.4016 58.1887 43.1758 59.0806 44.9821H62.0111C61.8837 43.9499 61.7562 43.0468 61.5014 42.4016C61.5014 42.4016 65.8335 42.4016 67.3624 40.4662C67.3624 40.4662 68.6365 42.9177 70.1655 43.0468V45.1112H72.2041C72.3315 44.7241 72.3315 44.337 72.4589 43.6919C72.4589 43.6919 73.2234 44.079 73.6057 45.1112H75.3894C75.1346 44.208 72.8412 35.8213 72.0767 35.1762C72.0767 35.1762 73.2234 35.0472 73.6057 36.4664C73.6057 36.4664 74.2427 39.434 75.5168 39.305C75.5168 39.305 76.4087 37.3696 74.8798 34.9181C74.8798 34.9181 74.2427 33.1118 70.93 33.3698L61.374 33.1118C60.0999 32.8537 59.208 32.0796 58.6983 31.1764Z" fill="#124C5F"/>
<path d="M47.1038 21.2414C47.8683 20.2092 47.7409 18.6609 46.7216 17.7577C45.7023 16.9835 44.1733 17.1126 43.2814 18.1448C40.8606 21.2414 36.5286 21.7575 33.4706 20.4672L31.8143 25.1122C37.0382 27.1766 43.4089 26.1444 47.1038 21.2414Z" fill="#124C5F"/>
<path d="M25.4436 13.1128C28.8916 13.1128 31.6868 10.2822 31.6868 6.79053C31.6868 3.29884 28.8916 0.468262 25.4436 0.468262C21.9955 0.468262 19.2003 3.29884 19.2003 6.79053C19.2003 10.2822 21.9955 13.1128 25.4436 13.1128Z" fill="#124C5F"/>
<path d="M29.1385 46.4015L23.7872 44.208L26.9725 35.0472C19.8374 31.0474 17.2891 24.7251 17.1617 24.338C16.3972 22.4026 17.2891 20.3382 19.2003 19.5641C21.1115 18.7899 23.1501 19.6931 23.9146 21.6285C24.042 21.8865 25.571 25.2412 29.5208 27.9508L31.9416 21.2414C32.1965 20.4673 32.069 19.6931 31.5594 19.048C26.9725 13.8869 21.6212 11.9515 15.7602 13.7579C14.1038 14.274 12.9571 15.5643 12.5749 17.2416L7.47833 44.079C7.47833 44.208 7.47833 44.208 7.47833 44.337C7.47833 44.4661 7.47833 44.7241 7.47833 44.8531L7.73316 57.1106L4.93007 56.4655C3.01887 56.0784 0.980264 57.3687 0.598025 59.304C0.215786 61.2394 1.48992 63.3038 3.40111 63.6909L10.6637 65.2392C11.8104 65.4973 12.8297 65.2392 13.7216 64.4651C14.6135 63.6909 15.1231 62.6587 14.9957 61.4975L14.7409 48.5949L24.042 52.3366V63.5619C24.042 65.6263 25.6984 67.3036 27.737 67.3036C29.7756 67.3036 31.432 65.6263 31.432 63.5619V49.8852C31.5594 48.3368 30.5401 47.0466 29.1385 46.4015Z" fill="#124C5F"/>
<path d="M38.9493 32.3376C26.8451 31.4344 23.0227 22.5316 22.8953 22.1445C22.3856 20.8543 20.9841 20.3382 19.71 20.8543C18.4358 21.3704 17.9262 22.7897 18.4358 24.0799C18.6907 24.596 23.5324 36.2083 38.6945 37.3696C40.0961 37.4986 41.2428 36.4664 41.2428 35.0471C41.2428 33.6278 40.3509 32.4666 38.9493 32.3376Z" fill="#124C5F"/>
<path d="M60.7369 15.5643C58.1887 16.0804 56.2775 18.4029 56.2775 21.1124H67.6172C67.6172 18.1448 65.4512 15.8224 62.6481 15.4353C58.8257 11.1774 52.7099 12.8548 47.8682 17.1126C48.1231 17.3707 48.3779 17.7578 48.6327 18.1448C52.0729 14.9192 56.7871 12.7258 60.7369 15.5643Z" fill="#124C5F"/>
<path d="M80.1038 46.1433H44.3008C43.2815 46.1433 42.3896 47.0465 42.3896 48.0787C42.3896 49.1109 43.2815 50.0141 44.3008 50.0141H44.683V53.2397C44.683 58.2717 48.7602 62.4006 53.7293 62.4006H70.9301C75.8992 62.4006 79.9764 58.2717 79.9764 53.2397V50.0141H80.3587C81.378 50.0141 82.2699 49.1109 82.2699 48.0787C82.015 46.9175 81.1231 46.1433 80.1038 46.1433Z" fill="#124C5F"/>
<path d="M57.2968 23.6928L57.4242 22.5316C57.4242 22.1445 57.2968 21.8865 56.9146 21.8865C56.5323 21.8865 56.2775 22.0155 56.2775 22.4026L56.1501 23.5638C56.1501 23.9509 56.2775 24.2089 56.6597 24.2089C56.9146 24.2089 57.1694 23.9509 57.2968 23.6928Z" fill="#124C5F"/>
<path d="M55.7679 25.2412L55.6404 26.4024C55.6404 26.7895 55.7679 27.0476 56.1501 27.0476C56.5323 27.0476 56.7872 26.9185 56.7872 26.5315L56.9146 25.3702C56.9146 24.9831 56.7872 24.7251 56.4049 24.7251C56.1501 24.7251 55.8953 24.9831 55.7679 25.2412Z" fill="#124C5F"/>
<path d="M60.0998 24.2089C60.482 24.2089 60.7368 23.9509 60.7368 23.5638V22.2735C60.7368 21.8865 60.482 21.6284 60.0998 21.6284C59.7175 21.6284 59.4627 21.8865 59.4627 22.2735V23.5638C59.4627 23.8219 59.8449 24.2089 60.0998 24.2089Z" fill="#124C5F"/>
<path d="M59.3354 26.5313C59.3354 26.9184 59.5902 27.1765 59.9725 27.1765C60.3547 27.1765 60.6095 26.9184 60.6095 26.5313V25.2411C60.6095 24.854 60.3547 24.5959 59.9725 24.5959C59.5902 24.5959 59.3354 24.854 59.3354 25.2411V26.5313Z" fill="#124C5F"/>
<path d="M63.5401 21.7576C63.1578 21.7576 62.903 22.0156 62.903 22.4027V23.693C62.903 24.08 63.1578 24.3381 63.5401 24.3381C63.9223 24.3381 64.1771 24.08 64.1771 23.693V22.4027C64.1771 22.0156 63.9223 21.7576 63.5401 21.7576Z" fill="#124C5F"/>
<path d="M63.1579 25.3702V26.6605C63.1579 27.0476 63.4127 27.3056 63.795 27.3056C64.1772 27.3056 64.432 27.0476 64.432 26.6605V25.3702C64.432 24.9831 64.1772 24.7251 63.795 24.7251C63.2853 24.7251 63.0305 24.9831 63.1579 25.3702Z" fill="#124C5F"/>
<path d="M66.8527 21.7574C66.4705 21.7574 66.3431 22.1445 66.3431 22.4026L66.4705 23.5638C66.4705 23.8219 66.7253 24.0799 67.1076 24.0799C67.4898 24.0799 67.7446 23.6928 67.7446 23.3057L67.4898 22.2735C67.4898 21.8865 67.1076 21.6284 66.8527 21.7574Z" fill="#124C5F"/>
<path d="M66.7255 25.4993L66.8529 26.6605C66.8529 26.9185 67.2352 27.1766 67.49 27.1766C67.8722 27.1766 68.1271 26.7895 67.9997 26.5315V25.2412C67.9997 24.8541 67.6174 24.7251 67.3626 24.7251C66.9804 24.8541 66.7255 25.1122 66.7255 25.4993Z" fill="#124C5F"/>
</svg>
