<svg width="65" height="66" viewBox="0 0 65 66" fill="none" xmlns="http://www.w3.org/2000/svg">
<path d="M46.6764 29.3622L52.7205 23.2416C53.4392 23.4801 54.1923 23.6415 54.9895 23.6415H57.4424C61.507 23.6415 64.8013 20.3055 64.8013 16.1895C64.8013 12.0735 61.507 8.73751 57.4424 8.73751H56.6379V7.92027C56.6379 3.80428 53.3435 0.468262 49.279 0.468262C45.2145 0.468262 41.9201 3.80428 41.9201 7.92027V10.4043C41.9201 11.2116 42.0796 11.9742 42.3151 12.702L36.271 18.8226L46.6764 29.3622Z" fill="#124C5F"/>
<path d="M18.9236 36.3867L12.8796 42.5073C12.1608 42.2688 11.4078 42.1074 10.6106 42.1074H8.15763C4.09308 42.1074 0.798767 45.4434 0.798767 49.5594C0.798767 53.6754 4.09308 57.0114 8.15763 57.0114H8.9622V57.8262C8.9622 61.9421 12.2565 65.2782 16.3211 65.2782C20.3856 65.2782 23.6799 61.9421 23.6799 57.8262V55.3421C23.6799 54.5348 23.5205 53.7723 23.285 53.0444L29.3291 46.9239L18.9236 36.3867Z" fill="#124C5F"/>
<path d="M57.4424 42.1076H54.9894C54.1922 42.1076 53.4391 42.2691 52.7204 42.5075L23.2874 12.702C23.5229 11.9742 23.6824 11.2116 23.6824 10.4043V7.92027C23.6824 3.80428 20.3881 0.468262 16.3235 0.468262C12.259 0.468262 8.96465 3.80428 8.96465 7.92027V8.73502H8.15763C4.09308 8.73502 0.798767 12.071 0.798767 16.187C0.798767 20.303 4.09308 23.639 8.15763 23.639H10.6106C11.4078 23.639 12.1608 23.4776 12.8796 23.2391L42.3125 53.0447C42.0771 53.7725 41.9176 54.5351 41.9176 55.3424V57.8264C41.9176 61.9424 45.2119 65.2784 49.2765 65.2784C53.341 65.2784 56.6353 61.9424 56.6353 57.8264V57.0116H57.4399C61.5045 57.0116 64.7988 53.6756 64.7988 49.5596C64.7988 45.4436 61.5069 42.1076 57.4424 42.1076Z" fill="#124C5F"/>
</svg>
