<svg width="66" height="72" viewBox="0 0 66 72" fill="none" xmlns="http://www.w3.org/2000/svg">
<path d="M13.7296 57.2135L16.1422 48.5518L15.2649 45.9977C13.4007 45.6645 11.8654 44.6651 10.8785 43.3325L7.58872 54.9925L1.11881 66.6525C0.241537 68.2072 0.789834 70.206 2.32507 71.0944C3.8603 71.9828 5.83417 71.4275 6.71144 69.8729L13.5103 57.8798C13.62 57.6577 13.7296 57.4356 13.7296 57.2135Z" fill="#124C5F"/>
<path d="M2.76382 33.3384C3.75075 33.8936 5.06666 33.4494 5.61496 32.339L10.5496 22.1226L11.4269 21.4563L11.8656 18.6801C12.0849 17.2365 12.7428 15.9039 13.6201 14.7935L7.69849 18.6801C7.36951 18.9022 7.15019 19.2354 6.93088 19.5685L1.77688 30.3401C1.22858 31.4506 1.66722 32.7832 2.76382 33.3384Z" fill="#124C5F"/>
<path d="M21.1864 12.4614C24.4568 12.4614 27.108 9.77664 27.108 6.46483C27.108 3.15302 24.4568 0.468262 21.1864 0.468262C17.916 0.468262 15.2648 3.15302 15.2648 6.46483C15.2648 9.77664 17.916 12.4614 21.1864 12.4614Z" fill="#124C5F"/>
<path d="M59.7867 57.2135C59.7867 57.2135 59.8964 57.3245 59.8964 57.4356C60.7736 56.8803 61.1026 55.6588 61.1026 55.6588C64.3924 56.6582 65.0504 53.5489 65.0504 53.5489C65.489 52.6605 63.2958 51.7721 63.2958 51.7721C63.1861 49.5512 60.664 48.8849 60.664 48.8849C59.4577 47.7744 59.7867 48.8849 59.7867 48.8849C58.5804 48.7739 57.8128 49.218 57.8128 49.218C55.839 47.3302 54.6327 50.2175 54.6327 50.2175C54.3037 50.2175 54.0844 50.3285 53.7554 50.3285C55.7293 52.9937 57.8128 55.3257 59.7867 57.2135Z" fill="#124C5F"/>
<path d="M62.5281 63.9874C61.9798 63.4321 58.0321 60.9891 58.0321 60.9891C58.9093 60.5449 59.019 58.6571 59.019 57.9908C56.9355 55.9919 54.7423 53.4379 52.5491 50.5506C51.4525 50.7727 44.215 53.882 37.1968 50.6617C34.5649 49.4401 32.2621 51.2169 32.2621 51.2169C30.2882 53.5489 31.1655 57.3245 31.1655 57.3245L33.907 54.3262C35.3326 53.2158 35.8809 53.4379 36.2098 53.9931C36.4292 54.4373 36.3195 54.9925 35.9905 55.4367C33.3587 58.2129 34.236 61.1001 34.236 61.1001L30.5075 64.4316C29.082 65.9862 30.7269 67.2077 30.7269 67.2077C31.0558 65.9862 33.6877 64.0984 33.6877 64.0984C33.578 65.542 34.236 65.8752 34.236 65.8752C36.1002 65.3199 35.6615 63.4321 35.6615 63.4321C38.6223 63.3211 38.9513 61.9885 38.9513 61.9885C41.9121 62.5438 43.3377 60.5449 43.3377 60.5449C44.1053 61.9885 50.7945 63.5432 50.7945 63.5432C51.2332 63.7653 53.7553 68.8735 53.7553 68.8735C54.3036 68.9845 54.8519 69.7618 54.8519 69.7618C56.0582 70.5392 58.5804 69.6508 58.5804 69.6508C58.361 68.6514 57.0451 68.6514 57.0451 68.6514C54.0843 68.6514 54.523 63.6542 54.523 63.6542C54.6326 62.9879 56.9355 64.2095 56.9355 64.2095L61.9798 66.0973C64.502 67.4298 65.5986 65.8752 65.5986 65.8752C66.3662 64.6537 62.5281 63.9874 62.5281 63.9874Z" fill="#124C5F"/>
<path d="M37.7449 24.4544C40.2671 30.1179 45.6404 41.3337 52.549 50.4396C52.8779 50.3285 53.3166 50.3285 53.7552 50.2175C53.6456 50.1064 53.5359 49.9954 53.4262 49.7733C46.5177 40.7784 41.1444 29.5626 38.7319 24.0103C38.2932 24.3434 37.8546 24.4544 37.7449 24.4544Z" fill="#124C5F"/>
<path d="M37.6354 23.3441C38.732 22.8999 39.3899 21.6784 38.9513 20.5679C38.5127 19.4574 37.3064 18.7912 36.2098 19.2353L30.2882 21.3452C23.3796 14.7934 23.0507 13.683 20.3092 13.2388C16.8001 12.6835 13.5103 15.2376 12.962 18.7912L10.3302 37.4471C9.78188 41.0007 12.304 44.3321 15.8131 44.8873C15.9228 44.8873 16.0325 44.8873 16.1421 44.8873L18.9933 53.549L13.1813 62.2107C12.1944 63.6544 12.5234 65.7643 14.0586 66.7637C15.4842 67.7631 17.5677 67.43 18.5546 65.8753L25.3535 55.881C25.9018 54.9927 26.1211 53.9932 25.7922 52.9938L22.1734 42.0001C22.7217 41.2228 23.1603 40.2233 23.27 39.2239L25.6825 22.6778L28.424 25.343C28.9723 25.8982 29.8496 26.1203 30.6172 25.7872L37.6354 23.3441Z" fill="#124C5F"/>
</svg>
