<svg width="44" height="35" viewBox="0 0 44 35" fill="none" xmlns="http://www.w3.org/2000/svg">
<path d="M22.7539 18.3707C22.9304 21.2433 26.3114 22.3368 29.4251 25.3928C34.0339 29.7956 37.8124 29.6026 38.497 27.2951C39.1449 25.0759 35.8909 22.6874 35.7211 20.1286C35.5513 17.5698 38.6824 15.9675 37.7816 13.5197C36.8808 11.0719 32.9957 9.8728 28.7796 13.0979C25.932 15.3364 22.6943 15.5466 22.7539 18.3707Z" fill="#FFE55E"/>
<path d="M15.7491 9.81504C18.4925 11.7841 21.7067 12.2899 22.9152 11.0293C24.1237 9.76883 22.8725 7.1755 20.0924 5.29489C17.349 3.32585 14.1348 2.82006 12.9263 4.08057C11.7545 5.25266 13.0058 7.84601 15.7491 9.81504Z" fill="#FFAA00"/>
<path d="M9.57482 16.0577C13.0293 16.9743 16.1436 16.4018 16.491 14.5762C16.8017 12.8391 14.2854 10.6533 10.714 9.68813C7.25955 8.7715 4.14528 9.34402 3.79785 11.1696C3.48715 12.9067 6.12032 15.141 9.57482 16.0577Z" fill="#FFAA00"/>
<path d="M11.6583 24.9353C15.1128 25.852 18.2271 25.2795 18.5745 23.4539C18.8852 21.7167 16.3689 19.531 12.7975 18.5658C9.34305 17.6492 6.22878 18.2217 5.88135 20.0473C5.57065 21.7844 8.20382 24.0187 11.6583 24.9353Z" fill="#FFAA00"/>
</svg>
