<svg width="87" height="94" viewBox="0 0 87 94" fill="none" xmlns="http://www.w3.org/2000/svg">
<path d="M57.2572 27.5002C57.0295 26.4127 56.4076 25.596 55.5523 25.2587C55.4912 25.2345 55.4271 25.2318 55.3651 25.2129C55.9779 22.1779 57.7062 11.1444 52.044 4.6874C48.7623 0.945391 43.6414 -0.535582 36.8315 0.28119C36.7063 0.226127 36.5704 0.194007 36.4293 0.189418C31.0802 0.00128538 26.9868 1.60672 24.3031 4.95469C19.0456 11.5119 20.9493 22.5765 21.4975 25.1992C21.4169 25.2218 21.334 25.2274 21.2547 25.2587C20.3989 25.596 19.7776 26.4127 19.5493 27.5002C19.346 28.469 19.4592 29.5881 19.8682 30.6503C20.617 32.5988 22.1321 33.8434 23.5872 33.8434C23.7428 33.8434 23.8977 33.8286 24.051 33.7994C25.2852 37.7771 27.3438 41.0847 30.7454 43.1149V47.1928H28.9783V58.6942H47.8283V47.1928H46.0605V43.1404C49.4682 41.1128 51.5287 37.7951 52.762 33.8012C52.9132 33.8295 53.0661 33.8434 53.2199 33.8434C54.6733 33.8434 56.189 32.5988 56.9389 30.6509C57.3467 29.5881 57.46 28.469 57.2572 27.5002ZM21.4892 30.0108C21.2066 29.2755 21.1199 28.4937 21.2513 27.8662C21.3556 27.3706 21.5867 27.0184 21.8857 26.9003C21.9667 26.8687 22.0551 26.8532 22.1491 26.8532C22.3189 26.8532 22.507 26.9052 22.7011 27.002C22.9004 28.7574 23.1836 30.4595 23.5778 32.0759C22.912 32.0624 21.9798 31.2868 21.4892 30.0108ZM47.0588 48.9548C45.3287 50.7967 42.1045 52.0383 38.4033 52.0383C34.7022 52.0383 31.478 50.7967 29.7479 48.9548H31.6154C32.0958 48.9548 32.4854 48.5602 32.4854 48.0738V43.9946C34.1808 44.7008 36.1512 45.1418 38.4474 45.2593C40.7066 45.143 42.6473 44.7084 44.3211 44.0149V48.0738C44.3211 48.5602 44.7108 48.9548 45.1911 48.9548H47.0588ZM52.3997 26.0691C52.3425 26.6108 52.2848 27.1519 52.2138 27.6726C52.0327 28.9998 51.8012 30.2528 51.519 31.436C51.4126 31.8824 51.2925 32.3111 51.1701 32.736C50.1036 36.4367 48.4238 39.3196 45.8298 41.1632C45.4467 41.4356 45.0319 41.6724 44.6083 41.8994C42.9034 42.8127 40.8818 43.3735 38.4474 43.4996C36.0186 43.3746 33.9973 42.8245 32.2909 41.9271C31.8378 41.6888 31.3989 41.4349 30.9916 41.1458C28.392 39.3004 26.7082 36.4225 25.6399 32.7295C25.517 32.3044 25.3966 31.8755 25.2898 31.4288C25.0073 30.2483 24.7754 28.9983 24.5941 27.6745C24.5228 27.1537 24.4648 26.6123 24.4074 26.0705C24.2538 24.6205 24.1443 23.101 24.0776 21.5093C24.2813 20.2171 24.5794 19.1445 24.9347 18.2657C25.4699 18.1739 26.6248 17.9209 27.9848 17.2866C28.1989 17.5866 28.5637 17.777 28.9341 17.7483C29.1267 17.7385 31.6902 17.59 34.3999 16.5134C34.3863 16.6379 34.3937 16.7658 34.4231 16.8925C34.5392 17.3858 34.9697 17.738 35.4704 17.7494C35.7032 17.7569 40.3087 17.8143 43.1509 14.5225C44.2474 17.1828 46.7096 21.5402 51.7314 24.2756L52.48 25.3203C52.4564 25.5747 52.4261 25.8189 52.3997 26.0691ZM55.3167 30.0108C54.8278 31.2845 53.8981 32.058 53.2338 32.075C53.6261 30.4587 53.9079 28.7566 54.1065 27.0013C54.3002 26.9048 54.4879 26.8532 54.6574 26.8532C54.7514 26.8532 54.8398 26.8687 54.9202 26.9003C55.3303 27.062 55.4946 27.5748 55.5557 27.8662C55.6871 28.4937 55.5999 29.2755 55.3167 30.0108ZM36.4293 32.3045V29.8347C36.4293 29.3483 36.819 28.9537 37.2993 28.9537C37.7796 28.9537 38.1693 29.3483 38.1693 29.8347V32.1049H39.5072C39.9875 32.1049 40.3772 32.4995 40.3772 32.9859C40.3772 33.4723 39.9875 33.8669 39.5072 33.8669H37.9722C37.1215 33.8669 36.4293 33.166 36.4293 32.3045ZM32.2721 26.639C32.2721 27.5866 31.5135 28.3547 30.5778 28.3547C29.6421 28.3547 28.8836 27.5866 28.8836 26.639C28.8836 25.6915 29.6421 24.9234 30.5778 24.9234C31.5135 24.9234 32.2721 25.6915 32.2721 26.639ZM47.9231 26.639C47.9231 27.5866 47.1645 28.3547 46.2289 28.3547C45.2932 28.3547 44.5346 27.5866 44.5346 26.639C44.5346 25.6915 45.2932 24.9234 46.2289 24.9234C47.1645 24.9234 47.9231 25.6915 47.9231 26.639ZM42.6621 37.7317C42.6621 39.1542 40.4622 39.6612 38.4033 39.6612C36.3449 39.6612 34.145 39.1542 34.145 37.7317C34.145 37.2453 34.5347 36.8507 35.015 36.8507C35.403 36.8507 35.7315 37.1076 35.8437 37.4633C36.1348 37.6376 37.0501 37.8992 38.4033 37.8992C39.757 37.8992 40.6723 37.6376 40.9634 37.4627C41.0756 37.1076 41.4041 36.8507 41.7921 36.8507C42.2724 36.8507 42.6621 37.2453 42.6621 37.7317ZM86.3071 65.2111C86.0566 64.7645 85.6679 64.4332 85.205 64.2426C85.2776 63.7579 85.2058 63.248 84.9488 62.7895C84.6985 62.343 84.3101 62.0119 83.8466 61.8212C83.9191 61.3365 83.8474 60.8265 83.5906 60.3679C83.3334 59.9091 82.9372 59.5863 82.4884 59.402C82.5613 58.9171 82.49 58.407 82.2335 57.9485C81.9378 57.422 81.4586 57.0446 80.882 56.884C80.3111 56.7245 79.7062 56.8002 79.1862 57.0985L78.3045 57.6058C78.1365 57.328 77.9145 57.0769 77.6422 56.8686V55.9054H82.5722C83.0525 55.9054 83.4422 55.5108 83.4422 55.0239C83.4422 54.5375 83.0525 54.1428 82.5722 54.1428H77.6422V53.2618H82.5722C83.0525 53.2618 83.4422 52.8672 83.4422 52.3808C83.4422 51.8944 83.0525 51.4998 82.5722 51.4998H77.6422V50.6188H82.5722C83.0525 50.6188 83.4422 50.2242 83.4422 49.7378C83.4422 49.2514 83.0525 48.8568 82.5722 48.8568H77.6422V47.9758H82.5722C83.0525 47.9758 83.4422 47.5811 83.4422 47.0947C83.4422 46.6083 83.0525 46.2137 82.5722 46.2137H77.6422L77.6478 45.3327H82.5722C83.0525 45.3327 83.4422 44.9381 83.4422 44.4517C83.4422 43.9653 83.0525 43.5707 82.5722 43.5707H77.6478C76.6691 43.5707 75.9022 44.4735 75.9022 45.6264V47.0947V49.7378V49.8708C75.8278 48.87 75.4617 47.8646 74.8158 46.999C73.2265 44.867 70.5043 44.2228 68.7507 45.565C67.8367 46.2641 67.3735 47.3677 67.3536 48.5642C66.2118 48.2559 65.0367 48.4051 64.1221 49.1046C63.2407 49.7779 62.7242 50.8706 62.7049 52.1015C62.6879 53.2412 63.0844 54.4141 63.823 55.4053C64.5616 56.3953 65.5675 57.1031 66.655 57.3979C67.0187 57.4965 67.3823 57.5447 67.738 57.5447C68.531 57.5447 69.2809 57.3038 69.8892 56.8381C69.947 56.7939 69.9881 56.7357 70.0424 56.6884L72.7709 60.0024L71.785 62.1531C71.7096 62.285 71.6412 62.4197 71.5803 62.5604L65.8439 65.8558L56.0564 49.5772C55.8163 49.1781 55.524 48.8354 55.2099 48.5212C54.6917 47.844 53.9437 47.3618 53.0762 47.2064C52.2312 46.9229 51.3305 46.8324 50.4383 46.9838V58.7907C50.6509 58.8576 50.8477 58.9554 51.0188 59.0854C51.3396 59.3291 51.5745 59.6722 51.6691 60.0765L51.8883 61.007L55.9483 78.2368V70.8575L59.2091 76.2812C60.2444 78.003 62.0581 78.9598 63.9204 78.9598C64.8425 78.9598 65.7771 78.7246 66.6346 78.2313L77.0803 72.2294C77.1234 72.2047 77.1567 72.1701 77.1989 72.1444C77.281 72.1495 77.3625 72.1606 77.4451 72.1606C78.1248 72.1606 78.8135 71.9874 79.4456 71.6237L81.4094 70.4943L81.5293 70.64C81.9258 71.1213 82.6254 71.2027 83.1194 70.8249L83.4787 70.5501L83.8575 70.2605L84.2164 69.9861C84.577 69.7104 84.714 69.2406 84.6156 68.7869L85.4688 68.2958C85.9876 67.9976 86.3603 67.5123 86.5189 66.9284C86.6775 66.3457 86.6016 65.7354 86.3071 65.2111ZM81.245 61.142L81.4043 61.0504C81.479 61.008 81.5628 60.985 81.6467 60.985C81.6909 60.985 81.735 60.9919 81.7792 61.0034C81.9072 61.0389 82.0137 61.1227 82.0783 61.2386C82.2131 61.4783 82.1293 61.7857 81.8925 61.9223L81.7339 62.0135L80.5874 62.6731L79.6155 63.2323C79.5011 63.2965 79.3686 63.3126 79.2406 63.2793C79.1137 63.2438 79.0072 63.16 78.9427 63.0442C78.8078 62.8033 78.8905 62.497 79.1273 62.3605L80.0242 61.8445L81.245 61.142ZM78.4519 59.7703L78.4737 59.7232C78.4897 59.688 78.4953 59.6509 78.5093 59.6153C78.5255 59.5741 78.537 59.5321 78.5506 59.4904L79.6365 58.8655L80.046 58.6299C80.1219 58.5875 80.2046 58.5645 80.2896 58.5645C80.3337 58.5645 80.3779 58.5703 80.421 58.5829C80.549 58.6185 80.6555 58.7022 80.72 58.8181C80.804 58.9673 80.7949 59.139 80.7251 59.2832C80.6829 59.3706 80.6236 59.4503 80.5343 59.5018L79.9093 59.8613L79.023 60.3712L78.2573 60.8118C78.1626 60.8659 78.0558 60.8777 77.9487 60.8636L78.4519 59.7703ZM68.4913 54.9636C68.0711 55.2825 67.5364 55.2051 67.2543 55.1282C66.672 54.9705 66.0966 54.5552 65.674 53.9891C65.2526 53.423 65.0159 52.7485 65.0249 52.1382C65.0294 51.8434 65.0997 51.3002 65.52 50.979C65.7307 50.8184 65.9901 50.7421 66.271 50.7421C66.953 50.7421 67.7663 51.1889 68.3361 51.9535C69.1416 53.0335 69.2118 54.4118 68.4913 54.9636ZM70.3027 50.4496C69.4984 49.3701 69.427 47.9912 70.1486 47.4395C70.3593 47.2789 70.6176 47.2026 70.8997 47.2026C71.5816 47.2026 72.3939 47.65 72.9648 48.4145C73.3873 48.9807 73.6241 49.6552 73.615 50.2649C73.6105 50.5603 73.5403 51.1029 73.12 51.4241C72.6997 51.743 72.165 51.6656 71.883 51.5887C71.3007 51.431 70.7252 51.0157 70.3027 50.4496ZM72.5428 57.5277C72.146 56.9955 72.2504 56.2383 72.7758 55.8365C73.3014 55.4347 74.0491 55.5403 74.446 56.0725C74.5847 56.2585 74.6409 56.4726 74.6606 56.6888C74.3344 56.903 74.0604 57.1921 73.8892 57.5631L73.6999 57.9758C73.2734 58.0513 72.8218 57.9018 72.5428 57.5277ZM79.3817 69.6335L78.5858 70.0911C77.4745 70.7335 76.0506 70.3355 75.4162 69.2078L73.2661 65.3763C72.9593 64.8295 72.8811 64.1945 73.0462 63.5879L73.0559 63.5668L73.3415 62.9436L75.4672 58.3053C75.5284 58.1728 75.6955 58.0863 75.9022 58.0665C76.0552 58.0518 76.2275 58.0695 76.4063 58.1539C76.5854 58.2385 76.7098 58.3611 76.797 58.4893C76.8167 58.5184 76.84 58.5454 76.8549 58.5749C76.9284 58.721 76.9459 58.8692 76.8957 58.9798L75.1152 62.8497L74.7603 63.6212C74.7263 63.695 74.7187 63.7723 74.7061 63.8488C74.6429 64.2295 74.8186 64.6204 75.1817 64.7913C75.3007 64.8475 75.4253 64.8739 75.5476 64.8739C75.6717 64.8739 75.7905 64.8392 75.9022 64.7884V68.9738C75.9022 69.4602 76.2919 69.8548 76.7722 69.8548C77.2525 69.8548 77.6422 69.4602 77.6422 68.9738V65.9189L79.7411 68.468L80.2768 69.1188L79.3817 69.6335ZM80.9738 65.6528C80.8582 65.717 80.7234 65.7365 80.5988 65.6998C80.4719 65.6643 80.3655 65.5805 80.3009 65.4647C80.1661 65.2238 80.2488 64.9175 80.4855 64.781L81.5885 64.1464L82.6031 63.5626L82.7625 63.4709C82.8373 63.4285 82.9211 63.4055 83.0049 63.4055C83.0491 63.4055 83.0933 63.4124 83.1375 63.4239C83.2643 63.4594 83.3708 63.5432 83.4354 63.659C83.5702 63.8999 83.4875 64.2062 83.2507 64.3427L83.092 64.4341L82.1517 64.975L80.9738 65.6528ZM84.8412 66.4615C84.8061 66.59 84.7234 66.6978 84.609 66.7632C84.609 66.7632 84.609 66.7632 84.6078 66.7632L84.1999 66.9982L83.716 67.2769L82.3332 68.0733C82.2298 68.1339 82.1146 68.1445 82.0054 68.125C81.8644 68.0999 81.734 68.0202 81.658 67.8851C81.5232 67.6442 81.607 67.338 81.8438 67.2014L83.1529 66.4483L83.5057 66.2452L84.1207 65.8914C84.1955 65.8489 84.2793 65.826 84.3632 65.826C84.3764 65.826 84.3893 65.8304 84.4025 65.8315C84.4334 65.8343 84.4644 65.8363 84.4946 65.8444C84.6226 65.8799 84.7279 65.9637 84.7948 66.0818C84.8593 66.1977 84.8763 66.3319 84.8412 66.4615ZM55.7785 91.9659L55.2941 80.5543C55.2918 80.5245 55.2884 80.4946 55.2805 80.4648L50.5408 60.3484C50.5233 60.2729 50.4863 60.2049 50.4383 60.1433C50.3091 59.9773 50.085 59.8689 49.8339 59.8689H26.9726C26.7214 59.8689 26.4976 59.9779 26.3683 60.1434C26.3204 60.2048 26.2834 60.2724 26.2657 60.3472L22.103 78.0171L21.5772 77.717L21.4553 77.6474C21.319 77.5717 21.182 77.5098 21.045 77.447L24.9183 61.0055L25.0807 60.3162L25.1375 60.0753C25.2323 59.6711 25.4674 59.3283 25.7883 59.0849C25.9593 58.9551 26.156 58.8574 26.3683 58.7907V47.1443V47.0267C24.3385 46.3611 22.0228 46.9244 20.5275 48.652L1.82248 70.2368C0.784823 71.4344 0.302245 73.0232 0.495956 74.604C0.689667 76.1859 1.54211 77.6073 2.83748 78.5112L13.5675 85.9998C13.9024 86.2337 14.2575 86.4096 14.6192 86.5591C15.0585 87.0698 15.5816 87.5062 16.1712 87.8387L19.9519 89.9716L20.5188 90.2914L20.8583 90.4829L21.0576 90.5953C21.0673 90.6008 21.078 90.6023 21.0878 90.6076L21.029 91.9672L20.9744 93.2303C20.967 93.4024 21.0514 93.5297 21.1239 93.6066C21.2621 93.7534 21.47 93.8372 21.6931 93.8372H55.1128C55.336 93.8372 55.5444 93.7534 55.6826 93.6066C55.7551 93.5297 55.8401 93.4024 55.8321 93.2303L55.7785 91.9659ZM14.1911 72.8821L20.8583 65.1885V77.3602C20.6393 77.2692 20.4201 77.198 20.201 77.1381C20.0728 77.03 19.9606 76.9089 19.8206 76.8111L14.1911 72.8821ZM27.2473 83.3166C27.1686 83.46 26.9828 83.5139 26.8446 83.4336C26.844 83.4336 26.844 83.4336 26.844 83.4336L22.8894 81.2024C22.6701 81.0789 22.4119 81.0864 22.18 81.1777C21.9681 81.261 21.7779 81.4134 21.666 81.6154C21.5527 81.8196 21.5244 82.0605 21.5872 82.2865C21.6501 82.5113 21.7991 82.7018 22.0007 82.8165L22.004 82.8183L26.7381 85.4905C26.8299 85.5421 26.865 85.6259 26.8775 85.6706C26.8905 85.7153 26.9041 85.8048 26.852 85.8989C26.8016 85.9918 26.7194 86.0262 26.6747 86.04C26.6299 86.0526 26.5404 86.0664 26.4498 86.0147L21.8238 83.4036L21.7124 83.3407C21.6166 83.2867 21.5118 83.2629 21.4059 83.254C21.2162 83.2382 21.028 83.2976 20.8583 83.3987C20.8426 83.4081 20.8262 83.4156 20.811 83.4258C20.6813 83.5126 20.564 83.6177 20.4878 83.7548C20.3751 83.959 20.3468 84.2011 20.4097 84.4259C20.4635 84.6184 20.5896 84.776 20.7486 84.8916C20.7754 84.9111 20.7941 84.9396 20.8231 84.9559L20.8583 84.9758L20.8995 84.999L21.3202 85.2363L24.7778 87.1871C24.8701 87.2387 24.9052 87.3225 24.9177 87.3684C24.9307 87.4131 24.9443 87.5014 24.8922 87.5955C24.8412 87.6884 24.7597 87.724 24.7149 87.7366C24.6713 87.7492 24.5829 87.7641 24.4901 87.7114L21.2911 85.907L20.8583 85.6629L20.7191 85.5843L20.4788 85.4488L20.1522 85.2646L20.093 85.2312C19.8172 85.0764 19.3958 85.136 19.1268 85.3058C18.8656 85.471 18.7104 85.7635 18.7178 86.0744C18.722 86.2389 18.7758 86.3919 18.8607 86.5257C18.9369 86.6456 19.0372 86.7507 19.1641 86.8223L20.0643 87.3302L20.6312 87.6501L20.8583 87.7783L21.2019 87.9721L22.1933 88.5316C22.2845 88.5832 22.319 88.667 22.332 88.7117C22.3445 88.7564 22.3581 88.8459 22.3071 88.9388C22.229 89.0811 22.042 89.1373 21.9044 89.0558L21.1728 88.6431L20.8583 88.4656L20.6027 88.3214L20.0358 88.0015L17.9647 86.833L17.0186 86.2992C16.2086 85.8427 15.5709 85.1119 15.2231 84.2412C14.7518 83.0643 14.8051 81.7772 15.3647 80.7986C16.0461 79.6079 17.3573 78.728 18.8164 78.728C19.4077 78.728 20.0236 78.8768 20.6313 79.2031C20.6488 79.2125 20.6663 79.2185 20.6838 79.2282L20.8583 79.3278L21.1575 79.4986L21.6832 79.7988L21.9953 79.9769L27.1318 82.9094C27.2241 82.961 27.2592 83.0459 27.2717 83.0906C27.2847 83.1354 27.2983 83.2249 27.2473 83.3166ZM48.757 78.948C48.7321 80.4957 47.2575 81.1713 46.5056 79.9761L45.7493 78.7754C45.5481 79.4878 45.242 80.1568 44.8459 80.7664C44.849 80.861 44.8582 80.9538 44.8582 81.0494C44.8582 85.043 41.9686 88.2808 38.4033 88.2808C34.8381 88.2808 31.9484 85.043 31.9484 81.0494C31.9484 80.9538 31.9577 80.861 31.9608 80.7664C31.564 80.1568 31.2579 79.4878 31.0568 78.7754L30.3011 79.9761C29.5492 81.1713 28.0746 80.4957 28.0491 78.948C28.0372 78.2252 28.0118 77.4748 27.9646 76.7394C27.8001 74.1565 31.2722 72.9455 32.8369 72.5311C34.229 71.5182 36.204 71.0623 38.4033 71.0623C40.602 71.0623 42.5777 71.5182 43.9698 72.5311C45.5345 72.9455 49.0065 74.1565 48.842 76.7394C48.7948 77.4748 48.7693 78.2252 48.757 78.948ZM35.7581 84.3116C35.7581 83.2236 36.9424 82.3415 38.4033 82.3415C39.8642 82.3415 41.0485 83.2236 41.0485 84.3116C41.0485 85.3996 39.8642 86.2817 38.4033 86.2817C36.9424 86.2817 35.7581 85.3996 35.7581 84.3116Z" fill="#124C5F"/>
</svg>
